HIERARCHY
ROOT Hips
{
	OFFSET 0.0000 0.0000 0.0000
	CHANNELS 6 Xposition Yposition Zposition Zrotation Xrotation Yrotation
	JOINT Spine1
	{
		OFFSET -0.0137 5.0038 -0.0537
		CHANNELS 3 Zrotation Xrotation Yrotation
		JOINT Spine2
		{
			OFFSET -0.0000 7.1253 -0.0298
			CHANNELS 3 Zrotation Xrotation Yrotation
			JOINT Chest
			{
				OFFSET -0.0000 7.5501 -0.8160
				CHANNELS 3 Zrotation Xrotation Yrotation
				JOINT Neck1
				{
					OFFSET -0.1817 26.3113 -0.5533
					CHANNELS 3 Zrotation Xrotation Yrotation
					JOINT Neck2
					{
						OFFSET -0.0000 7.7094 2.3026
						CHANNELS 3 Zrotation Xrotation Yrotation
						JOINT Head
						{
							OFFSET -0.0000 6.1289 1.9537
							CHANNELS 3 Zrotation Xrotation Yrotation
							JOINT Jaw
							{
								OFFSET 0.0026 0.4756 3.0949
								CHANNELS 3 Zrotation Xrotation Yrotation
								End Site
								{
									OFFSET 0.0 1.0 0.0
								}
							}
							JOINT LeftEye
							{
								OFFSET 3.2064 5.3802 7.5869
								CHANNELS 3 Zrotation Xrotation Yrotation
								End Site
								{
									OFFSET 0.0 1.0 0.0
								}
							}
							JOINT RightEye
							{
								OFFSET -3.2224 5.3619 7.5582
								CHANNELS 3 Zrotation Xrotation Yrotation
								End Site
								{
									OFFSET 0.0 1.0 0.0
								}
							}
						}
					}
				}
				JOINT LeftShoulder
				{
					OFFSET 1.6217 23.2372 5.1134
					CHANNELS 3 Zrotation Xrotation Yrotation
					JOINT LeftArm
					{
						OFFSET 14.9198 0.0000 -5.5023
						CHANNELS 3 Zrotation Xrotation Yrotation
						JOINT LeftForeArm
						{
							OFFSET 28.7393 0.0000 -0.0026
							CHANNELS 3 Zrotation Xrotation Yrotation
							JOINT LeftHand
							{
								OFFSET 27.0940 -0.0000 0.0026
								CHANNELS 3 Zrotation Xrotation Yrotation
								JOINT LeftHandThumbEnd
								{
									OFFSET 12.2686 -3.2202 4.8331
									CHANNELS 3 Zrotation Xrotation Yrotation
									End Site
									{
										OFFSET 0.0 1.0 0.0
									}
								}
								JOINT LeftHandMiddleEnd
								{
									OFFSET 19.0120 -0.3129 -0.0340
									CHANNELS 3 Zrotation Xrotation Yrotation
									End Site
									{
										OFFSET 0.0 1.0 0.0
									}
								}
							}
						}
					}
				}
				JOINT RightShoulder
				{
					OFFSET -1.3801 23.1803 5.2142
					CHANNELS 3 Zrotation Xrotation Yrotation
					JOINT RightArm
					{
						OFFSET -15.0372 0.0000 -5.5456
						CHANNELS 3 Zrotation Xrotation Yrotation
						JOINT RightForeArm
						{
							OFFSET -28.7366 0.0000 -0.0026
							CHANNELS 3 Zrotation Xrotation Yrotation
							JOINT RightHand
							{
								OFFSET -27.1336 -0.0000 0.0026
								CHANNELS 3 Zrotation Xrotation Yrotation
								JOINT RightHandThumbEnd
								{
									OFFSET -12.2642 -3.2115 4.8040
									CHANNELS 3 Zrotation Xrotation Yrotation
									End Site
									{
										OFFSET 0.0 1.0 0.0
									}
								}
								JOINT RightHandMiddleEnd
								{
									OFFSET -19.0006 -0.3066 -0.0316
									CHANNELS 3 Zrotation Xrotation Yrotation
									End Site
									{
										OFFSET 0.0 1.0 0.0
									}
								}
							}
						}
					}
				}
			}
		}
	}
	JOINT LeftLeg
	{
		OFFSET 10.0432 -8.4345 2.5957
		CHANNELS 3 Zrotation Xrotation Yrotation
		JOINT LeftShin
		{
			OFFSET -0.0000 -43.2218 -0.8029
			CHANNELS 3 Zrotation Xrotation Yrotation
			JOINT LeftFoot
			{
				OFFSET 0.0000 -42.1551 -3.4815
				CHANNELS 3 Zrotation Xrotation Yrotation
				JOINT LeftToeBase
				{
					OFFSET 0.0000 -5.0595 13.2315
					CHANNELS 3 Zrotation Xrotation Yrotation
					End Site
					{
						OFFSET 0.0 1.0 0.0
					}
				}
			}
		}
	}
	JOINT RightLeg
	{
		OFFSET -10.0473 -8.2953 2.6203
		CHANNELS 3 Zrotation Xrotation Yrotation
		JOINT RightShin
		{
			OFFSET 0.0000 -43.3622 -0.8056
			CHANNELS 3 Zrotation Xrotation Yrotation
			JOINT RightFoot
			{
				OFFSET 0.0000 -42.1174 -3.4784
				CHANNELS 3 Zrotation Xrotation Yrotation
				JOINT RightToeBase
				{
					OFFSET -0.0000 -5.0796 13.2842
					CHANNELS 3 Zrotation Xrotation Yrotation
					End Site
					{
						OFFSET 0.0 1.0 0.0
					}
				}
			}
		}
	}
}
MOTION
Frames: 5
Frame Time: 0.033333
-310.4501 97.0870 1.4926 -2.6900 2.8866 27.9597 0.1912 -2.6625 -0.5791 -0.6525 -5.8841 -2.2697 -1.7880 8.7804 -5.6746 7.4441 0.7274 -0.1297 -3.6158 -3.7538 -9.2156 1.0630 -15.4055 -12.6801 -0.0142 0.0918 -0.0591 0.5882 -10.5030 -3.9228 -0.6118 -10.4775 3.8030 -19.8604 10.8789 -18.7024 -51.5475 1.0079 -24.7132 0.4371 -0.0974 -28.7320 -0.1685 0.1408 0.0774 -15.4193 10.9228 16.2104 -60.1189 1.5408 2.6085 22.9843 10.8435 11.0602 55.4335 1.2771 -3.3875 0.0070 -0.0049 17.2157 1.7074 -13.4486 1.8866 15.6852 7.4482 -15.9622 49.9908 -3.7665 -4.7630 0.7807 -1.8411 12.0135 0.0967 41.9826 0.0759 -7.2951 -12.8256 9.9318 1.9115 -3.0064 -2.1350 12.7323 -12.9190 -29.9408 -0.1147 23.1736 -0.8873 -4.5167 -14.6435 -16.1600 -1.4858 0.6318 0.7308
-313.4537 96.8141 1.3746 -2.9404 3.2080 29.9693 0.1969 -2.9791 -0.7794 -0.6108 -6.0446 -2.7311 -1.4738 8.5908 -6.0473 7.7099 1.1508 -0.2690 -3.6520 -3.7223 -9.5646 0.7891 -15.5072 -13.0475 -0.0067 0.1084 -0.0199 0.5794 -10.4671 -3.8814 -0.5891 -10.4409 3.8387 -20.0640 10.8734 -19.2088 -51.6083 1.5108 -25.7135 0.3237 -0.0797 -28.2278 -0.3788 0.3954 0.2222 -15.6276 10.9690 16.2633 -60.2374 1.6190 2.4774 23.6603 10.7417 10.1198 55.9425 2.2934 -4.6201 -0.2278 0.0059 17.3848 1.7060 -13.0957 1.0969 15.6261 7.5051 -16.1398 50.0905 -3.8723 -4.8657 -2.6329 1.7003 10.8907 0.0474 38.3338 0.6050 -10.6208 -12.8227 1.7544 1.8645 -3.0563 -2.0835 15.2114 -13.0485 -30.2114 -0.1498 22.5544 -1.0108 -6.7913 -14.4444 -17.6361 -1.4921 0.3604 0.7489
-316.8347 96.5192 1.1381 -3.3791 3.5078 31.8887 0.2202 -3.3434 -0.8977 -0.5760 -6.1787 -3.1441 -1.1810 8.5144 -6.5089 8.0339 1.5576 -0.3105 -3.7234 -3.7362 -10.0339 0.6341 -15.4913 -13.4338 -0.0133 0.1151 -0.0327 0.5503 -10.4349 -3.8854 -0.5746 -10.4044 3.8194 -20.1311 10.8302 -19.6006 -51.6584 2.1036 -26.3998 0.3011 -0.0641 -27.8952 -0.6503 0.1270 0.2454 -15.8239 11.0224 16.2400 -60.5478 1.7355 2.3236 24.6552 10.9047 9.2446 56.2872 2.9466 -5.8892 -0.3083 0.0058 17.9682 1.7547 -12.1290 0.4647 15.5706 7.5756 -16.4028 50.1281 -3.9381 -5.0635 -5.2638 4.9296 9.3099 -0.0035 32.8395 0.9097 -14.5444 -12.2860 -8.1190 1.7338 -3.0468 -2.0014 17.9138 -13.2563 -30.6277 -0.2416 21.9406 -1.1835 -8.9733 -13.5416 -18.6336 -1.4643 0.0238 0.8343
-320.1777 96.2427 0.6890 -3.9040 3.7759 33.7192 0.1815 -3.6098 -0.9800 -0.5760 -6.2798 -3.5426 -1.0077 8.4990 -6.9131 8.5793 1.8191 -0.4123 -3.8250 -3.7476 -10.4324 0.5044 -15.2809 -13.8530 -0.0215 0.1041 -0.0613 0.5173 -10.4460 -3.9096 -0.5586 -10.4170 3.7896 -19.8578 10.9729 -20.0478 -51.5363 2.6330 -27.0169 0.3289 -0.0519 -27.6450 -1.0372 -0.5189 0.1590 -15.9429 11.0597 16.1842 -60.8419 1.7942 2.1783 25.8085 11.1910 8.4409 56.7357 3.2138 -6.9825 -0.3086 0.0117 18.4560 1.8530 -11.6553 0.3456 15.5924 7.6360 -16.6281 50.2386 -3.9260 -5.3739 -7.2257 7.0348 7.5658 0.0255 27.0779 0.9694 -17.3304 -10.9480 -15.6019 1.5463 -3.4170 -1.9646 20.7379 -13.7251 -31.2569 -0.3545 21.4965 -1.4593 -10.9530 -11.7458 -19.5283 -1.4441 -0.6391 0.9337
-323.7872 95.9773 -0.0451 -4.2611 3.9306 35.3918 -0.0284 -3.6181 -1.0804 -0.6568 -6.2622 -3.9017 -1.0507 8.5011 -7.2080 9.4031 1.9375 -0.5997 -3.9762 -3.7845 -10.7777 0.4472 -15.0840 -14.2400 -0.0239 0.0902 -0.0912 0.5038 -10.4636 -3.9386 -0.5497 -10.4462 3.7590 -19.1236 11.3078 -20.5318 -51.2836 2.7519 -27.2742 0.3352 -0.0011 -27.4934 -1.5673 -0.8908 0.0213 -15.9692 11.0530 16.1854 -61.0281 1.8435 2.1557 26.7692 11.4055 7.7013 57.5444 2.9698 -7.7713 -0.2665 0.0556 18.4416 2.0823 -12.0821 0.4052 15.5872 7.6236 -16.7490 50.1305 -3.9812 -5.6375 -8.5966 7.7031 5.9629 0.0802 22.3210 0.9442 -17.0650 -8.4952 -19.2600 1.4351 -4.1332 -1.9392 23.4348 -14.7185 -32.2381 -0.4870 21.6459 -1.7620 -12.7159 -8.9825 -20.0878 -1.4389 -1.5919 1.0588
